<svg width="22" height="22" viewBox="0 0 22 22" fill="none" xmlns="http://www.w3.org/2000/svg">
<path d="M11.0001 3.89693C7.09351 3.89693 3.90659 7.07592 3.90659 10.9727C3.90659 14.8696 7.09351 18.0486 11.0001 18.0486C14.9066 18.0486 18.0935 14.8696 18.0935 10.9727C18.0935 7.07592 14.9066 3.89693 11.0001 3.89693ZM11.7197 15.8951H10.3832V14.5619H11.7197V15.8951ZM13.0561 10.6651L12.5421 11.2804C12.0281 11.7931 11.7197 12.2033 11.7197 13.2288H10.3832V12.9212C10.3832 12.2033 10.6916 11.4855 11.2057 10.9727L12.0281 10.1524C12.2337 9.84472 12.3365 9.53707 12.3365 9.12688C12.3365 8.40904 11.7197 7.79376 11.0001 7.79376C10.2804 7.79376 9.6636 8.40904 9.6636 9.12688H8.32716C8.32716 7.58866 9.5608 6.46063 11.0001 6.46063C12.5421 6.46063 13.673 7.69121 13.673 9.12688C13.7758 9.74217 13.4673 10.2549 13.0561 10.6651Z" fill="#FAFAFA"/>
<path opacity="0.15" d="M11 20.2025C16.1099 20.2025 20.2523 16.0704 20.2523 10.9732C20.2523 5.87596 16.1099 1.74385 11 1.74385C5.89003 1.74385 1.74761 5.87596 1.74761 10.9732C1.74761 16.0704 5.89003 20.2025 11 20.2025Z" fill="#FAFAFA"/>
<path opacity="0.1" d="M11 21.9453C17.0751 21.9453 22 17.0327 22 10.9726C22 4.91262 17.0751 0 11 0C4.92487 0 0 4.91262 0 10.9726C0 17.0327 4.92487 21.9453 11 21.9453Z" fill="#FAFAFA"/>
</svg>
