<svg width="71" height="16" viewBox="0 0 71 16" fill="none" xmlns="http://www.w3.org/2000/svg">
<path d="M18.7272 13.5169C18.7564 13.8646 18.8953 14.2124 19.1438 14.5602C19.3923 14.908 19.5166 15.1653 19.5166 15.3323V15.4157C19.5166 15.68 19.3412 15.8122 18.9903 15.8122H14.6046C14.2537 15.8122 14.0783 15.68 14.0783 15.4157V15.3323C14.0783 15.1792 14.2171 14.9288 14.4949 14.5811C14.7727 14.2333 14.8969 13.8785 14.8677 13.5169L14.6484 9.82343C14.5899 8.7801 14.4437 8.0428 14.2098 7.61156C13.9759 7.1664 13.6178 6.94382 13.1353 6.94382C12.6967 6.94382 12.3605 7.12467 12.1266 7.48636C11.8927 7.84805 11.7757 8.32798 11.7757 8.92616C11.8196 9.2183 11.8415 9.51043 11.8415 9.80257V13.5169C11.8415 13.8646 11.9731 14.2124 12.2362 14.5602C12.4994 14.908 12.631 15.1653 12.631 15.3323V15.4157C12.631 15.68 12.4555 15.8122 12.1047 15.8122H7.74085C7.38999 15.8122 7.21456 15.68 7.21456 15.4157V15.3323C7.21456 15.1653 7.33882 14.908 7.58735 14.5602C7.85049 14.2124 7.98207 13.8646 7.98207 13.5169V9.55217C7.98207 7.81327 7.48502 6.94382 6.49091 6.94382C6.00848 6.94382 5.643 7.12467 5.39447 7.48636C5.14595 7.84805 5.02169 8.32798 5.02169 8.92616V13.5169C5.02169 13.8646 5.1825 14.2124 5.50412 14.5602C5.82574 14.908 5.98655 15.1653 5.98655 15.3323V15.4157C5.98655 15.68 5.81112 15.8122 5.46026 15.8122H0.723649C0.372789 15.8122 0.197359 15.68 0.197359 15.4157V15.3323C0.197359 15.1653 0.35817 14.908 0.679791 14.5602C1.00141 14.2124 1.16222 13.8646 1.16222 13.5169V9.4061C1.16222 9.12788 1.05989 8.89139 0.855222 8.69663C0.665172 8.48796 0.475123 8.30712 0.285074 8.15409C0.0950246 8.00107 0 7.84109 0 7.67416V7.61156C0 7.43071 0.17543 7.25682 0.52629 7.08989L3.8156 5.65008C4.07875 5.53879 4.28342 5.53879 4.42961 5.65008C4.5758 5.76137 4.6489 5.9283 4.6489 6.15088V6.90209C5.32138 6.01177 6.29355 5.56661 7.56542 5.56661C9.18815 5.56661 10.3869 6.13697 11.1617 7.27769C11.4541 6.73515 11.8854 6.31782 12.4555 6.02568C13.0257 5.71964 13.6762 5.56661 14.4072 5.56661C15.4744 5.56661 16.3808 5.90744 17.1264 6.58909C17.8866 7.27073 18.3251 8.39058 18.4421 9.94864L18.7272 13.5169Z" fill="#404040"/>
<path d="M30.7424 13.5169C30.7863 13.8507 30.8667 14.122 30.9836 14.3307C31.1152 14.5254 31.2395 14.6506 31.3564 14.7063C31.488 14.7619 31.6049 14.8315 31.7073 14.9149C31.8096 14.9984 31.8608 15.1027 31.8608 15.2279C31.8608 15.687 31.0348 15.9165 29.3828 15.9165C28.7103 15.9165 28.206 15.84 27.8697 15.687C27.5481 15.534 27.3434 15.2766 27.2557 14.9149C26.7002 15.6383 25.7719 16 24.4708 16C23.2428 16 22.2414 15.7287 21.4665 15.1862C20.7063 14.6437 20.3262 13.8577 20.3262 12.8283C20.3262 11.8266 20.7063 11.0476 21.4665 10.4912C22.2267 9.92081 23.1624 9.63563 24.2734 9.63563C25.1359 9.63563 25.8742 9.80952 26.4882 10.1573V10.0947C26.342 8.7175 26.1739 7.78545 25.9839 7.29855C25.8084 6.81166 25.4576 6.56822 24.9313 6.56822C24.595 6.56822 24.3246 6.71429 24.1199 7.00642C23.9152 7.29856 23.7617 7.61851 23.6594 7.96629C23.5717 8.31407 23.3963 8.63403 23.1331 8.92616C22.87 9.2183 22.5191 9.36436 22.0805 9.36436C21.6273 9.36436 21.2546 9.23916 20.9622 8.98876C20.6844 8.73836 20.5455 8.41145 20.5455 8.00803C20.5455 7.20118 20.9695 6.59604 21.8174 6.19262C22.6653 5.77528 23.7033 5.56661 24.9313 5.56661C26.3932 5.56661 27.5993 5.94917 28.5495 6.71429C29.5144 7.46549 30.0845 8.48796 30.26 9.7817L30.7424 13.5169ZM25.6769 14.9358C26.0131 14.9358 26.2836 14.7828 26.4882 14.4767C26.7075 14.1707 26.8172 13.8229 26.8172 13.4334L26.7294 12.4735C26.5832 11.3189 26.1301 10.7416 25.3699 10.7416C25.0336 10.7416 24.7632 10.8737 24.5585 11.138C24.3538 11.3884 24.2515 11.7293 24.2515 12.1605C24.2515 12.9395 24.3758 13.6003 24.6243 14.1429C24.8874 14.6715 25.2383 14.9358 25.6769 14.9358Z" fill="#404040"/>
<path d="M44.3115 13.5169C44.3407 13.8646 44.4796 14.2124 44.7281 14.5602C44.9767 14.8941 45.1009 15.1514 45.1009 15.3323V15.4157C45.1009 15.68 44.9255 15.8122 44.5746 15.8122H40.1889C39.838 15.8122 39.6626 15.68 39.6626 15.4157V15.3323C39.6626 15.1653 39.8015 14.908 40.0793 14.5602C40.357 14.2124 40.4813 13.8646 40.452 13.5169L40.2328 9.7817C40.1743 8.75227 40.0281 8.02194 39.7942 7.59069C39.5749 7.15944 39.2167 6.94382 38.7197 6.94382C38.2519 6.94382 37.8937 7.12467 37.6452 7.48636C37.4113 7.84805 37.2943 8.34189 37.2943 8.9679V13.5169C37.2943 13.8646 37.4551 14.2124 37.7767 14.5602C38.0984 14.908 38.2592 15.1653 38.2592 15.3323V15.4157C38.2592 15.68 38.0837 15.8122 37.7329 15.8122H32.9963C32.6454 15.8122 32.47 15.68 32.47 15.4157V15.3323C32.47 15.1653 32.6308 14.908 32.9524 14.5602C33.274 14.2124 33.4348 13.8646 33.4348 13.5169V9.4061C33.4348 9.11396 33.3398 8.87052 33.1498 8.67576C32.9597 8.46709 32.7624 8.2932 32.5577 8.15409C32.3676 8.00107 32.2726 7.84109 32.2726 7.67416V7.61156C32.2726 7.43071 32.448 7.25682 32.7989 7.08989L35.8689 5.65008C36.1467 5.53879 36.3514 5.53879 36.4829 5.65008C36.6291 5.74746 36.7022 5.91439 36.7022 6.15088V7.13162C37.3162 6.08828 38.3615 5.56661 39.838 5.56661C40.9345 5.56661 41.8774 5.90744 42.6669 6.58909C43.4563 7.27073 43.9095 8.37667 44.0264 9.9069L44.3115 13.5169Z" fill="#404040"/>
<path d="M57.0348 13.5169C57.0348 13.8646 57.181 14.2124 57.4734 14.5602C57.7658 14.8941 57.912 15.1445 57.912 15.3114V15.3949C57.912 15.6592 57.7438 15.7913 57.4076 15.7913H54.2718C53.8917 15.7913 53.7016 15.6174 53.7016 15.2697V15.0819C53.0145 15.694 52.1228 16 51.0263 16C49.6083 16 48.3876 15.5409 47.3642 14.6228C46.3555 13.6907 45.8511 12.4109 45.8511 10.7833C45.8511 9.26699 46.3628 8.02194 47.3862 7.04815C48.4095 6.06046 49.6302 5.56661 51.0483 5.56661C51.94 5.56661 52.6929 5.76137 53.3069 6.15088V3.3756C53.3069 3.09738 53.2119 2.86089 53.0218 2.66613C52.8318 2.45746 52.6344 2.28357 52.4298 2.14446C52.2397 1.99144 52.1447 1.83146 52.1447 1.66453V1.60193C52.1447 1.33761 52.3128 1.15677 52.6491 1.05939L56.0699 0.0786517C56.7132 -0.116105 57.0348 0.0508293 57.0348 0.579454V13.5169ZM51.9035 14.9775C52.2982 14.9914 52.6271 14.8384 52.8903 14.5185C53.168 14.1985 53.3069 13.7673 53.3069 13.2247V9.19743C53.3069 8.52969 53.1022 7.93151 52.6929 7.40289C52.2982 6.86035 51.845 6.58909 51.3333 6.58909C50.2515 6.58909 49.6741 7.44462 49.601 9.1557C49.5717 9.80952 49.6302 10.5677 49.7764 11.4302C49.9372 12.2927 50.2003 13.0995 50.5658 13.8507C50.9459 14.588 51.3918 14.9636 51.9035 14.9775Z" fill="#404040"/>
<path d="M70.0571 13.496C70.0571 13.8716 70.1009 14.1568 70.1886 14.3515C70.291 14.5463 70.4006 14.6576 70.5176 14.6854C70.6491 14.6993 70.7588 14.748 70.8465 14.8315C70.9488 14.9149 71 15.0471 71 15.2279C71 15.4922 70.8099 15.6731 70.4298 15.7705C70.0644 15.8678 69.5015 15.9165 68.7413 15.9165C68.0542 15.9165 67.5499 15.8261 67.2282 15.6453C66.9212 15.4644 66.7385 15.1514 66.68 14.7063C66.0953 15.5688 65.0646 16 63.5881 16C62.4185 16 61.4391 15.6383 60.6496 14.9149C59.8748 14.1776 59.4874 13.1691 59.4874 11.8892V8.40449C59.4874 8.0428 59.3412 7.69502 59.0488 7.36116C58.7564 7.02729 58.6102 6.7908 58.6102 6.65168V6.56822C58.6102 6.28999 58.7784 6.13002 59.1146 6.08828L62.382 5.67095C63.0691 5.58748 63.4126 5.72659 63.4126 6.08828L63.3469 12.2648C63.3322 13.0995 63.4346 13.7047 63.6539 14.0803C63.8878 14.4419 64.2533 14.6228 64.7503 14.6228C65.1596 14.6228 65.5032 14.435 65.781 14.0594C66.0587 13.6699 66.1976 13.1621 66.1976 12.5361V8.40449C66.1976 8.0428 66.0514 7.69502 65.759 7.36116C65.4666 7.02729 65.3204 6.7908 65.3204 6.65168V6.56822C65.3204 6.28999 65.4886 6.13002 65.8248 6.08828L69.0922 5.67095C69.7354 5.58748 70.0571 5.72659 70.0571 6.08828V13.496Z" fill="#404040"/>
<path d="M61.6276 4.44191C61.3776 4.67983 60.9722 4.67983 60.7221 4.44191L59.2816 3.0711C59.0315 2.83317 59.0315 2.44741 59.2816 2.20949L60.7221 0.838678C60.9722 0.600751 61.3776 0.600751 61.6276 0.838677L63.0682 2.20949C63.3182 2.44741 63.3182 2.83317 63.0682 3.0711L61.6276 4.44191Z" fill="#404040"/>
<path d="M68.2457 4.44191C67.9957 4.67983 67.5903 4.67983 67.3402 4.44191L65.8997 3.0711C65.6496 2.83317 65.6496 2.44741 65.8997 2.20949L67.3402 0.838678C67.5903 0.600751 67.9957 0.600751 68.2457 0.838677L69.6863 2.20949C69.9363 2.44741 69.9363 2.83317 69.6863 3.0711L68.2457 4.44191Z" fill="#404040"/>
</svg>
