<svg width="16" height="15" viewBox="0 0 16 15" fill="none" xmlns="http://www.w3.org/2000/svg">
<path d="M8.80001 10.4H7.20001C6.76001 10.4 6.40001 10.04 6.40001 9.60001H0.808014V12.8C0.808014 13.68 1.52801 14.4 2.40801 14.4H13.6C14.48 14.4 15.2 13.68 15.2 12.8V9.60001H9.60001C9.60001 10.04 9.24001 10.4 8.80001 10.4Z" fill="white"/>
<path d="M14.4 3.2H11.2C11.2 1.432 9.768 0 8 0C6.232 0 4.8 1.432 4.8 3.2H1.6C0.72 3.2 0 3.92 0 4.8V7.2C0 8.088 0.712 8.8 1.6 8.8H6.4V8C6.4 7.56 6.76 7.2 7.2 7.2H8.8C9.24 7.2 9.6 7.56 9.6 8V8.8H14.4C15.28 8.8 16 8.08 16 7.2V4.8C16 3.92 15.28 3.2 14.4 3.2ZM6.4 3.2C6.4 2.32 7.12 1.6 8 1.6C8.88 1.6 9.6 2.32 9.6 3.2H9.592H6.392H6.4Z" fill="white"/>
</svg>
